<mxfile host="app.diagrams.net" agent="Mozilla/5.0 (Windows NT 10.0; Win64; x64) AppleWebKit/537.36 (KHTML, like Gecko) Chrome/127.0.0.0 Safari/537.36" border="50" scale="3" compressed="false" locked="false" version="24.7.7">
  <diagram name="Blank" id="YmL12bMKpDGza6XwsDPr">
    <mxGraphModel dx="2059" dy="686" grid="0" gridSize="10" guides="1" tooltips="1" connect="1" arrows="1" fold="1" page="0" pageScale="1" pageWidth="827" pageHeight="1169" background="none" math="1" shadow="0">
      <root>
        <mxCell id="X5NqExCQtvZxIxQ7pmgY-0" />
        <mxCell id="1" parent="X5NqExCQtvZxIxQ7pmgY-0" />
        <mxCell id="uZHWdwqBzNDXaLBIzFla-1" value="Main POS Server" style="rounded=0;whiteSpace=wrap;html=1;fillColor=#dae8fc;strokeColor=#6c8ebf;" vertex="1" parent="1">
          <mxGeometry x="-429" y="328" width="178" height="29" as="geometry" />
        </mxCell>
        <mxCell id="uZHWdwqBzNDXaLBIzFla-2" value="Servicepoint Architecture" style="text;strokeColor=none;fillColor=none;html=1;fontSize=24;fontStyle=1;verticalAlign=middle;align=center;" vertex="1" parent="1">
          <mxGeometry x="-390" y="249" width="100" height="40" as="geometry" />
        </mxCell>
        <mxCell id="uZHWdwqBzNDXaLBIzFla-4" value="POS Terminal" style="rounded=0;whiteSpace=wrap;html=1;fillColor=#d5e8d4;strokeColor=#82b366;" vertex="1" parent="1">
          <mxGeometry x="-616.5" y="385" width="130" height="39" as="geometry" />
        </mxCell>
        <mxCell id="uZHWdwqBzNDXaLBIzFla-6" value="&lt;span style=&quot;font-weight: normal;&quot;&gt;&lt;font style=&quot;font-size: 16px;&quot;&gt;FOH (Serving Side)&lt;/font&gt;&lt;/span&gt;" style="text;strokeColor=none;fillColor=none;html=1;fontSize=24;fontStyle=1;verticalAlign=middle;align=center;" vertex="1" parent="1">
          <mxGeometry x="-688" y="280" width="100" height="40" as="geometry" />
        </mxCell>
        <mxCell id="uZHWdwqBzNDXaLBIzFla-7" value="POS Accessories" style="rounded=0;whiteSpace=wrap;html=1;" vertex="1" parent="1">
          <mxGeometry x="-616.5" y="451" width="129" height="24" as="geometry" />
        </mxCell>
        <mxCell id="uZHWdwqBzNDXaLBIzFla-9" value="" style="endArrow=classic;startArrow=classic;html=1;rounded=0;exitX=0.5;exitY=0;exitDx=0;exitDy=0;entryX=0.5;entryY=1;entryDx=0;entryDy=0;" edge="1" parent="1" source="uZHWdwqBzNDXaLBIzFla-7" target="uZHWdwqBzNDXaLBIzFla-4">
          <mxGeometry width="50" height="50" relative="1" as="geometry">
            <mxPoint x="-547.5" y="462" as="sourcePoint" />
            <mxPoint x="-555.5" y="434" as="targetPoint" />
          </mxGeometry>
        </mxCell>
        <mxCell id="uZHWdwqBzNDXaLBIzFla-11" value="Self-Service Kiosk" style="rounded=0;whiteSpace=wrap;html=1;fillColor=#d5e8d4;strokeColor=#82b366;" vertex="1" parent="1">
          <mxGeometry x="-789.5" y="385" width="130" height="39" as="geometry" />
        </mxCell>
        <mxCell id="uZHWdwqBzNDXaLBIzFla-12" value="Kiosk Accessories" style="rounded=0;whiteSpace=wrap;html=1;" vertex="1" parent="1">
          <mxGeometry x="-789" y="451" width="129" height="24" as="geometry" />
        </mxCell>
        <mxCell id="uZHWdwqBzNDXaLBIzFla-13" value="" style="endArrow=classic;startArrow=classic;html=1;rounded=0;exitX=0.5;exitY=0;exitDx=0;exitDy=0;entryX=0.5;entryY=1;entryDx=0;entryDy=0;" edge="1" parent="1" source="uZHWdwqBzNDXaLBIzFla-12" target="uZHWdwqBzNDXaLBIzFla-11">
          <mxGeometry width="50" height="50" relative="1" as="geometry">
            <mxPoint x="-541.5" y="461" as="sourcePoint" />
            <mxPoint x="-541.5" y="434" as="targetPoint" />
          </mxGeometry>
        </mxCell>
        <mxCell id="uZHWdwqBzNDXaLBIzFla-14" value="Kitchen Display" style="rounded=0;whiteSpace=wrap;html=1;fillColor=#ffe6cc;strokeColor=#d79b00;" vertex="1" parent="1">
          <mxGeometry x="-206" y="385" width="130" height="39" as="geometry" />
        </mxCell>
        <mxCell id="uZHWdwqBzNDXaLBIzFla-15" value="iPOS Server" style="rounded=0;whiteSpace=wrap;html=1;fillColor=#e1d5e7;strokeColor=#9673a6;" vertex="1" parent="1">
          <mxGeometry x="-400" y="386" width="120" height="38" as="geometry" />
        </mxCell>
        <mxCell id="uZHWdwqBzNDXaLBIzFla-16" value="iPOS Terminal" style="rounded=0;whiteSpace=wrap;html=1;fillColor=#d5e8d4;strokeColor=#82b366;" vertex="1" parent="1">
          <mxGeometry x="-369.75" y="449" width="59.5" height="40" as="geometry" />
        </mxCell>
        <mxCell id="uZHWdwqBzNDXaLBIzFla-18" value="Accessories" style="rounded=0;whiteSpace=wrap;html=1;" vertex="1" parent="1">
          <mxGeometry x="-375.62" y="514" width="71.25" height="45" as="geometry" />
        </mxCell>
        <mxCell id="uZHWdwqBzNDXaLBIzFla-19" value="" style="endArrow=classic;startArrow=classic;html=1;rounded=0;exitX=0.5;exitY=0;exitDx=0;exitDy=0;entryX=0.5;entryY=1;entryDx=0;entryDy=0;" edge="1" parent="1" source="uZHWdwqBzNDXaLBIzFla-18" target="uZHWdwqBzNDXaLBIzFla-16">
          <mxGeometry width="50" height="50" relative="1" as="geometry">
            <mxPoint x="-542" y="461" as="sourcePoint" />
            <mxPoint x="-541" y="434" as="targetPoint" />
          </mxGeometry>
        </mxCell>
        <mxCell id="uZHWdwqBzNDXaLBIzFla-20" value="" style="endArrow=classic;startArrow=classic;html=1;rounded=0;exitX=0.5;exitY=0;exitDx=0;exitDy=0;entryX=0.5;entryY=1;entryDx=0;entryDy=0;" edge="1" parent="1" source="uZHWdwqBzNDXaLBIzFla-16" target="uZHWdwqBzNDXaLBIzFla-15">
          <mxGeometry width="50" height="50" relative="1" as="geometry">
            <mxPoint x="-542" y="461" as="sourcePoint" />
            <mxPoint x="-541" y="434" as="targetPoint" />
          </mxGeometry>
        </mxCell>
      </root>
    </mxGraphModel>
  </diagram>
</mxfile>
